<svg width="140" height="50" viewBox="0 0 140 50" fill="none" xmlns="http://www.w3.org/2000/svg">
  <path d="M1.09234 46.76C1.12968 46.76 1.17234 46.792 1.22034 46.856C1.26834 46.92 1.30034 46.9653 1.31634 46.992L2.91634 49.528C2.93768 49.56 2.96701 49.5893 3.00434 49.616C3.04701 49.6373 3.09234 49.648 3.14034 49.648H3.68434C3.77501 49.648 3.84168 49.624 3.88434 49.576C3.92701 49.528 3.94834 49.4747 3.94834 49.416V45.232C3.94834 45.1733 3.92701 45.12 3.88434 45.072C3.84168 45.024 3.77501 45 3.68434 45H3.31634C3.22568 45 3.15901 45.024 3.11634 45.072C3.07901 45.12 3.06034 45.1733 3.06034 45.232V47.552C3.06034 47.6107 3.05768 47.6693 3.05234 47.728C3.04701 47.7813 3.02301 47.8293 2.98034 47.872C2.94301 47.872 2.90034 47.84 2.85234 47.776C2.80434 47.712 2.77234 47.6667 2.75634 47.64L1.18034 45.12C1.15901 45.088 1.12701 45.0613 1.08434 45.04C1.04701 45.0133 1.00434 45 0.956344 45H0.388344C0.297677 45 0.23101 45.024 0.188344 45.072C0.15101 45.12 0.132344 45.1733 0.132344 45.232V49.416C0.132344 49.4747 0.15101 49.528 0.188344 49.576C0.23101 49.624 0.297677 49.648 0.388344 49.648H0.756344C0.84701 49.648 0.913677 49.624 0.956344 49.576C0.99901 49.528 1.02034 49.4747 1.02034 49.416V47.08C1.02034 47.064 1.02034 47.04 1.02034 47.008C1.02034 46.9707 1.02301 46.9307 1.02834 46.888C1.03368 46.872 1.03634 46.856 1.03634 46.84C1.04168 46.8187 1.04968 46.8027 1.06034 46.792L1.09234 46.76ZM10.2309 45.872C10.3162 45.872 10.3802 45.848 10.4229 45.8C10.4656 45.752 10.4869 45.6987 10.4869 45.64V45.232C10.4869 45.1733 10.4656 45.12 10.4229 45.072C10.3802 45.024 10.3162 45 10.2309 45H7.63891C7.54824 45 7.48157 45.024 7.43891 45.072C7.40157 45.12 7.38291 45.1733 7.38291 45.232V49.416C7.38291 49.4747 7.40157 49.528 7.43891 49.576C7.48157 49.624 7.54824 49.648 7.63891 49.648H10.2309C10.3162 49.648 10.3802 49.624 10.4229 49.576C10.4656 49.528 10.4869 49.4747 10.4869 49.416V49.008C10.4869 48.9493 10.4656 48.896 10.4229 48.848C10.3802 48.8 10.3162 48.776 10.2309 48.776H8.45491C8.39624 48.776 8.35357 48.76 8.32691 48.728C8.30557 48.696 8.29491 48.6587 8.29491 48.616V47.872C8.29491 47.8293 8.30557 47.792 8.32691 47.76C8.35357 47.728 8.39624 47.712 8.45491 47.712H9.89491C9.98557 47.712 10.0522 47.688 10.0949 47.64C10.1376 47.592 10.1589 47.5387 10.1589 47.48V47.12C10.1589 47.0613 10.1376 47.0107 10.0949 46.968C10.0522 46.92 9.98557 46.896 9.89491 46.896H8.45491C8.39624 46.896 8.35357 46.88 8.32691 46.848C8.30557 46.816 8.29491 46.7787 8.29491 46.736V46.032C8.29491 45.9893 8.30557 45.952 8.32691 45.92C8.35357 45.888 8.39624 45.872 8.45491 45.872H10.2309ZM13.488 45C13.3973 45 13.3306 45.024 13.288 45.072C13.2506 45.12 13.232 45.1733 13.232 45.232V45.632C13.232 45.6907 13.2506 45.744 13.288 45.792C13.3306 45.8347 13.3973 45.856 13.488 45.856H14.352C14.4053 45.856 14.4453 45.872 14.472 45.904C14.4986 45.936 14.512 45.9733 14.512 46.016V49.416C14.512 49.4747 14.5306 49.528 14.568 49.576C14.6106 49.624 14.6773 49.648 14.768 49.648H15.16C15.2506 49.648 15.3146 49.624 15.352 49.576C15.3946 49.528 15.416 49.4747 15.416 49.416V46.016C15.416 45.9733 15.4293 45.936 15.456 45.904C15.4826 45.872 15.5253 45.856 15.584 45.856H16.44C16.5253 45.856 16.5893 45.8347 16.632 45.792C16.6746 45.744 16.696 45.6907 16.696 45.632V45.232C16.696 45.1733 16.6746 45.12 16.632 45.072C16.5893 45.024 16.5253 45 16.44 45H13.488ZM19.7105 45C19.6038 45 19.5131 45.016 19.4385 45.048C19.3638 45.08 19.3265 45.1467 19.3265 45.248C19.3265 45.2907 19.3291 45.3227 19.3345 45.344L20.4145 49.44C20.4251 49.488 20.4545 49.536 20.5025 49.584C20.5505 49.6267 20.6145 49.648 20.6945 49.648H21.0545C21.1291 49.648 21.1878 49.6267 21.2305 49.584C21.2785 49.5413 21.3105 49.4987 21.3265 49.456C21.3585 49.3653 21.3878 49.2747 21.4145 49.184C21.4411 49.0933 21.4678 49.0027 21.4945 48.912C21.5905 48.6187 21.6838 48.3253 21.7745 48.032C21.8705 47.7387 21.9638 47.4453 22.0545 47.152C22.0598 47.136 22.0678 47.112 22.0785 47.08C22.0945 47.0427 22.1105 47.008 22.1265 46.976C22.1425 46.944 22.1611 46.9147 22.1825 46.888C22.2038 46.8613 22.2225 46.848 22.2385 46.848C22.2598 46.848 22.2785 46.8613 22.2945 46.888C22.3158 46.9147 22.3345 46.9467 22.3505 46.984C22.3665 47.016 22.3798 47.0507 22.3905 47.088C22.4011 47.12 22.4091 47.144 22.4145 47.16L23.0625 49.448C23.0785 49.496 23.1105 49.5413 23.1585 49.584C23.2065 49.6267 23.2678 49.648 23.3425 49.648H23.5345C23.6251 49.648 23.7131 49.64 23.7985 49.624C23.8891 49.608 23.9478 49.5467 23.9745 49.44L25.1265 45.344C25.1371 45.3013 25.1425 45.2693 25.1425 45.248C25.1425 45.1413 25.1051 45.0747 25.0305 45.048C24.9611 45.0213 24.8865 45.0053 24.8065 45H24.7025H24.6225C24.5265 45 24.4465 45.0133 24.3825 45.04C24.3185 45.0667 24.2731 45.1227 24.2465 45.208L23.6945 47.2C23.6838 47.2373 23.6731 47.2747 23.6625 47.312C23.6518 47.344 23.6385 47.376 23.6225 47.408C23.6171 47.4187 23.6038 47.432 23.5825 47.448C23.5665 47.464 23.5211 47.48 23.4465 47.496C23.4145 47.4533 23.3878 47.408 23.3665 47.36C23.3505 47.3067 23.3371 47.2533 23.3265 47.2L22.7825 45.208C22.7665 45.1547 22.7345 45.1067 22.6865 45.064C22.6385 45.0213 22.5771 45 22.5025 45H22.0145C21.9398 45 21.8785 45.0213 21.8305 45.064C21.7878 45.1067 21.7585 45.152 21.7425 45.2C21.6198 45.5573 21.5078 45.9173 21.4065 46.28C21.3051 46.6373 21.1985 46.9973 21.0865 47.36C21.0811 47.3707 21.0731 47.392 21.0625 47.424C21.0518 47.456 21.0385 47.488 21.0225 47.52C21.0118 47.5413 20.9985 47.56 20.9825 47.576C20.9718 47.5867 20.9398 47.5973 20.8865 47.608C20.8598 47.576 20.8385 47.536 20.8225 47.488C20.8065 47.44 20.7931 47.3947 20.7825 47.352L20.2145 45.208C20.1878 45.1067 20.1345 45.048 20.0545 45.032C19.9745 45.0107 19.8918 45 19.8065 45H19.7105ZM30.1863 49.752C30.5169 49.752 30.8209 49.6853 31.0983 49.552C31.3809 49.4187 31.6209 49.24 31.8183 49.016C32.0209 48.792 32.1783 48.5333 32.2903 48.24C32.4023 47.9467 32.4583 47.6427 32.4583 47.328C32.4583 47.0133 32.4023 46.7093 32.2903 46.416C32.1783 46.1227 32.0209 45.864 31.8183 45.64C31.6209 45.416 31.3809 45.2373 31.0983 45.104C30.8209 44.9653 30.5169 44.896 30.1863 44.896C29.8556 44.896 29.5516 44.9653 29.2743 45.104C29.0023 45.2373 28.7649 45.416 28.5623 45.64C28.3649 45.864 28.2103 46.1227 28.0983 46.416C27.9863 46.7093 27.9303 47.0133 27.9303 47.328C27.9303 47.6427 27.9863 47.9467 28.0983 48.24C28.2103 48.528 28.3649 48.784 28.5623 49.008C28.7649 49.232 29.0023 49.4133 29.2743 49.552C29.5516 49.6853 29.8556 49.752 30.1863 49.752ZM30.1863 48.888C29.9516 48.888 29.7463 48.8373 29.5703 48.736C29.3996 48.6293 29.2583 48.4987 29.1463 48.344C29.0343 48.184 28.9516 48.0133 28.8983 47.832C28.8449 47.6507 28.8183 47.4827 28.8183 47.328C28.8183 47.1733 28.8449 47.0053 28.8983 46.824C28.9516 46.6427 29.0343 46.4747 29.1463 46.32C29.2583 46.16 29.3996 46.0267 29.5703 45.92C29.7463 45.8133 29.9516 45.76 30.1863 45.76C30.4263 45.76 30.6316 45.8133 30.8023 45.92C30.9783 46.0267 31.1223 46.16 31.2343 46.32C31.3463 46.4747 31.4289 46.6427 31.4823 46.824C31.5356 47.0053 31.5623 47.1733 31.5623 47.328C31.5623 47.4827 31.5356 47.6507 31.4823 47.832C31.4289 48.0133 31.3463 48.184 31.2343 48.344C31.1223 48.4987 30.9783 48.6293 30.8023 48.736C30.6316 48.8373 30.4263 48.888 30.1863 48.888ZM36.48 46.04C36.48 45.9867 36.4933 45.9413 36.52 45.904C36.552 45.8667 36.6026 45.8453 36.672 45.84H37.048C37.32 45.84 37.5306 45.8693 37.68 45.928C37.8293 45.9867 37.904 46.1333 37.904 46.368C37.904 46.512 37.8533 46.6293 37.752 46.72C37.656 46.8053 37.5093 46.848 37.312 46.848H36.672C36.6026 46.848 36.552 46.8267 36.52 46.784C36.4933 46.7413 36.48 46.6933 36.48 46.64V46.04ZM36.192 49.648C36.2986 49.648 36.3733 49.6187 36.416 49.56C36.4586 49.496 36.48 49.432 36.48 49.368V47.84C36.48 47.7973 36.4906 47.7573 36.512 47.72C36.5386 47.6827 36.5813 47.664 36.64 47.664C36.6986 47.664 36.744 47.6693 36.776 47.68C36.8133 47.6907 36.8453 47.7173 36.872 47.76L37.92 49.504C37.9413 49.5413 37.9733 49.576 38.016 49.608C38.0586 49.6347 38.1093 49.648 38.168 49.648H38.536C38.6266 49.648 38.7013 49.632 38.76 49.6C38.824 49.5627 38.856 49.5067 38.856 49.432C38.856 49.3947 38.848 49.36 38.832 49.328C38.8213 49.296 38.808 49.2667 38.792 49.24L37.984 47.872C37.952 47.824 37.936 47.776 37.936 47.728C37.936 47.68 37.9493 47.6427 37.976 47.616C38.008 47.5893 38.0533 47.5627 38.112 47.536C38.4053 47.3973 38.6106 47.232 38.728 47.04C38.8506 46.848 38.912 46.624 38.912 46.368C38.912 45.8827 38.7546 45.5333 38.44 45.32C38.1253 45.1067 37.6613 45 37.048 45H35.816C35.7093 45.0053 35.6346 45.0373 35.592 45.096C35.5493 45.1493 35.528 45.208 35.528 45.272V49.368C35.528 49.432 35.5493 49.496 35.592 49.56C35.64 49.6187 35.7146 49.648 35.816 49.648H36.192ZM42.3885 45C42.2872 45 42.2125 45.032 42.1645 45.096C42.1219 45.1547 42.1005 45.216 42.1005 45.28V49.376C42.1005 49.4347 42.1219 49.496 42.1645 49.56C42.2125 49.6187 42.2872 49.648 42.3885 49.648H42.7645C42.8712 49.648 42.9459 49.6187 42.9885 49.56C43.0312 49.496 43.0525 49.4347 43.0525 49.376V48.44C43.0525 48.4027 43.0579 48.3493 43.0685 48.28C43.0792 48.2053 43.1112 48.168 43.1645 48.168C43.2019 48.168 43.2392 48.184 43.2765 48.216C43.3139 48.2427 43.3459 48.2693 43.3725 48.296L44.6685 49.56C44.7272 49.6187 44.7939 49.648 44.8685 49.648H45.3325C45.4072 49.648 45.4845 49.6347 45.5645 49.608C45.6445 49.5813 45.6845 49.5307 45.6845 49.456C45.6845 49.4027 45.6685 49.3547 45.6365 49.312C45.6099 49.2693 45.5779 49.2293 45.5405 49.192C45.3752 49.0213 45.2045 48.8507 45.0285 48.68C44.8579 48.5093 44.6845 48.3387 44.5085 48.168C44.3859 48.0453 44.2605 47.9253 44.1325 47.808C44.0045 47.6907 43.8792 47.568 43.7565 47.44C43.7139 47.3973 43.6925 47.3493 43.6925 47.296C43.6925 47.2373 43.7165 47.1893 43.7645 47.152L45.5005 45.456C45.5379 45.424 45.5725 45.3867 45.6045 45.344C45.6419 45.296 45.6605 45.2453 45.6605 45.192C45.6605 45.112 45.6179 45.0613 45.5325 45.04C45.4525 45.0133 45.3752 45 45.3005 45H44.8205C44.7459 45 44.6792 45.0293 44.6205 45.088L43.3725 46.296C43.3459 46.3227 43.3139 46.352 43.2765 46.384C43.2392 46.4107 43.2019 46.424 43.1645 46.424C43.1112 46.424 43.0792 46.3867 43.0685 46.312C43.0579 46.2373 43.0525 46.1813 43.0525 46.144V45.28C43.0525 45.216 43.0312 45.1547 42.9885 45.096C42.9459 45.032 42.8712 45 42.7645 45H42.3885ZM54.2252 46.76C54.2625 46.76 54.3052 46.792 54.3532 46.856C54.4012 46.92 54.4332 46.9653 54.4492 46.992L56.0492 49.528C56.0705 49.56 56.0998 49.5893 56.1372 49.616C56.1798 49.6373 56.2252 49.648 56.2732 49.648H56.8172C56.9078 49.648 56.9745 49.624 57.0172 49.576C57.0598 49.528 57.0812 49.4747 57.0812 49.416V45.232C57.0812 45.1733 57.0598 45.12 57.0172 45.072C56.9745 45.024 56.9078 45 56.8172 45H56.4492C56.3585 45 56.2918 45.024 56.2492 45.072C56.2118 45.12 56.1932 45.1733 56.1932 45.232V47.552C56.1932 47.6107 56.1905 47.6693 56.1852 47.728C56.1798 47.7813 56.1558 47.8293 56.1132 47.872C56.0758 47.872 56.0332 47.84 55.9852 47.776C55.9372 47.712 55.9052 47.6667 55.8892 47.64L54.3132 45.12C54.2918 45.088 54.2598 45.0613 54.2172 45.04C54.1798 45.0133 54.1372 45 54.0892 45H53.5212C53.4305 45 53.3638 45.024 53.3212 45.072C53.2838 45.12 53.2652 45.1733 53.2652 45.232V49.416C53.2652 49.4747 53.2838 49.528 53.3212 49.576C53.3638 49.624 53.4305 49.648 53.5212 49.648H53.8892C53.9798 49.648 54.0465 49.624 54.0892 49.576C54.1318 49.528 54.1532 49.4747 54.1532 49.416V47.08C54.1532 47.064 54.1532 47.04 54.1532 47.008C54.1532 46.9707 54.1558 46.9307 54.1612 46.888C54.1665 46.872 54.1692 46.856 54.1692 46.84C54.1745 46.8187 54.1825 46.8027 54.1932 46.792L54.2252 46.76ZM63.3637 45.872C63.4491 45.872 63.5131 45.848 63.5557 45.8C63.5984 45.752 63.6197 45.6987 63.6197 45.64V45.232C63.6197 45.1733 63.5984 45.12 63.5557 45.072C63.5131 45.024 63.4491 45 63.3637 45H60.7717C60.6811 45 60.6144 45.024 60.5717 45.072C60.5344 45.12 60.5157 45.1733 60.5157 45.232V49.416C60.5157 49.4747 60.5344 49.528 60.5717 49.576C60.6144 49.624 60.6811 49.648 60.7717 49.648H63.3637C63.4491 49.648 63.5131 49.624 63.5557 49.576C63.5984 49.528 63.6197 49.4747 63.6197 49.416V49.008C63.6197 48.9493 63.5984 48.896 63.5557 48.848C63.5131 48.8 63.4491 48.776 63.3637 48.776H61.5877C61.5291 48.776 61.4864 48.76 61.4597 48.728C61.4384 48.696 61.4277 48.6587 61.4277 48.616V47.872C61.4277 47.8293 61.4384 47.792 61.4597 47.76C61.4864 47.728 61.5291 47.712 61.5877 47.712H63.0277C63.1184 47.712 63.1851 47.688 63.2277 47.64C63.2704 47.592 63.2917 47.5387 63.2917 47.48V47.12C63.2917 47.0613 63.2704 47.0107 63.2277 46.968C63.1851 46.92 63.1184 46.896 63.0277 46.896H61.5877C61.5291 46.896 61.4864 46.88 61.4597 46.848C61.4384 46.816 61.4277 46.7787 61.4277 46.736V46.032C61.4277 45.9893 61.4384 45.952 61.4597 45.92C61.4864 45.888 61.5291 45.872 61.5877 45.872H63.3637ZM67.6128 46.04C67.6128 45.9867 67.6261 45.9413 67.6528 45.904C67.6848 45.8667 67.7354 45.8453 67.8048 45.84H68.1808C68.4528 45.84 68.6634 45.8693 68.8128 45.928C68.9621 45.9867 69.0368 46.1333 69.0368 46.368C69.0368 46.512 68.9861 46.6293 68.8848 46.72C68.7888 46.8053 68.6421 46.848 68.4448 46.848H67.8048C67.7354 46.848 67.6848 46.8267 67.6528 46.784C67.6261 46.7413 67.6128 46.6933 67.6128 46.64V46.04ZM67.3248 49.648C67.4314 49.648 67.5061 49.6187 67.5488 49.56C67.5914 49.496 67.6128 49.432 67.6128 49.368V47.84C67.6128 47.7973 67.6234 47.7573 67.6448 47.72C67.6714 47.6827 67.7141 47.664 67.7728 47.664C67.8314 47.664 67.8768 47.6693 67.9088 47.68C67.9461 47.6907 67.9781 47.7173 68.0048 47.76L69.0528 49.504C69.0741 49.5413 69.1061 49.576 69.1488 49.608C69.1914 49.6347 69.2421 49.648 69.3008 49.648H69.6688C69.7594 49.648 69.8341 49.632 69.8928 49.6C69.9568 49.5627 69.9888 49.5067 69.9888 49.432C69.9888 49.3947 69.9808 49.36 69.9648 49.328C69.9541 49.296 69.9408 49.2667 69.9248 49.24L69.1168 47.872C69.0848 47.824 69.0688 47.776 69.0688 47.728C69.0688 47.68 69.0821 47.6427 69.1088 47.616C69.1408 47.5893 69.1861 47.5627 69.2448 47.536C69.5381 47.3973 69.7434 47.232 69.8608 47.04C69.9834 46.848 70.0448 46.624 70.0448 46.368C70.0448 45.8827 69.8874 45.5333 69.5728 45.32C69.2581 45.1067 68.7941 45 68.1808 45H66.9488C66.8421 45.0053 66.7674 45.0373 66.7248 45.096C66.6821 45.1493 66.6608 45.208 66.6608 45.272V49.368C66.6608 49.432 66.6821 49.496 66.7248 49.56C66.7728 49.6187 66.8474 49.648 66.9488 49.648H67.3248ZM73.8173 45.184C73.8013 45.1413 73.7693 45.1013 73.7213 45.064C73.6787 45.0213 73.62 45 73.5453 45H73.3453H73.2893C73.2467 45 73.2013 45.0027 73.1533 45.008C73.1053 45.008 73.06 45.016 73.0173 45.032C72.98 45.048 72.948 45.072 72.9213 45.104C72.8947 45.136 72.8813 45.1813 72.8813 45.24C72.8813 45.272 72.892 45.3147 72.9133 45.368C73.0093 45.672 73.116 45.9733 73.2333 46.272C73.3507 46.5653 73.4627 46.864 73.5693 47.168L74.3293 49.248C74.34 49.264 74.3453 49.2827 74.3453 49.304C74.3507 49.32 74.3587 49.3387 74.3693 49.36C74.396 49.4347 74.4307 49.5013 74.4733 49.56C74.5213 49.6187 74.5907 49.648 74.6813 49.648H75.0573C75.132 49.648 75.188 49.6293 75.2253 49.592C75.268 49.5547 75.3 49.5147 75.3213 49.472C75.3747 49.3653 75.4173 49.2613 75.4493 49.16C75.4867 49.0533 75.5267 48.9467 75.5693 48.84L76.0973 47.536C76.1133 47.4933 76.1373 47.432 76.1693 47.352C76.2067 47.272 76.2467 47.1787 76.2893 47.072C76.332 46.96 76.3773 46.8427 76.4253 46.72C76.4787 46.592 76.532 46.464 76.5853 46.336C76.6387 46.208 76.6893 46.0827 76.7373 45.96C76.7853 45.8373 76.828 45.728 76.8653 45.632C76.9027 45.5307 76.932 45.4453 76.9533 45.376C76.9747 45.3013 76.9853 45.2533 76.9853 45.232C76.9853 45.1627 76.9587 45.1067 76.9053 45.064C76.852 45.0213 76.7773 45 76.6813 45H76.3373C76.268 45 76.2093 45.0187 76.1613 45.056C76.1187 45.0933 76.0867 45.1333 76.0653 45.176L75.5773 46.392C75.492 46.6053 75.4067 46.8187 75.3213 47.032C75.2413 47.24 75.156 47.4507 75.0653 47.664C75.0493 47.696 75.0253 47.744 74.9933 47.808C74.9613 47.872 74.924 47.904 74.8813 47.904C74.8387 47.904 74.8013 47.872 74.7693 47.808C74.7373 47.7387 74.716 47.6907 74.7053 47.664L73.8173 45.184ZM82.0535 49.752C82.3841 49.752 82.6881 49.6853 82.9655 49.552C83.2481 49.4187 83.4881 49.24 83.6855 49.016C83.8881 48.792 84.0455 48.5333 84.1575 48.24C84.2695 47.9467 84.3255 47.6427 84.3255 47.328C84.3255 47.0133 84.2695 46.7093 84.1575 46.416C84.0455 46.1227 83.8881 45.864 83.6855 45.64C83.4881 45.416 83.2481 45.2373 82.9655 45.104C82.6881 44.9653 82.3841 44.896 82.0535 44.896C81.7228 44.896 81.4188 44.9653 81.1415 45.104C80.8695 45.2373 80.6321 45.416 80.4295 45.64C80.2321 45.864 80.0775 46.1227 79.9655 46.416C79.8535 46.7093 79.7975 47.0133 79.7975 47.328C79.7975 47.6427 79.8535 47.9467 79.9655 48.24C80.0775 48.528 80.2321 48.784 80.4295 49.008C80.6321 49.232 80.8695 49.4133 81.1415 49.552C81.4188 49.6853 81.7228 49.752 82.0535 49.752ZM82.0535 48.888C81.8188 48.888 81.6135 48.8373 81.4375 48.736C81.2668 48.6293 81.1255 48.4987 81.0135 48.344C80.9015 48.184 80.8188 48.0133 80.7655 47.832C80.7121 47.6507 80.6855 47.4827 80.6855 47.328C80.6855 47.1733 80.7121 47.0053 80.7655 46.824C80.8188 46.6427 80.9015 46.4747 81.0135 46.32C81.1255 46.16 81.2668 46.0267 81.4375 45.92C81.6135 45.8133 81.8188 45.76 82.0535 45.76C82.2935 45.76 82.4988 45.8133 82.6695 45.92C82.8455 46.0267 82.9895 46.16 83.1015 46.32C83.2135 46.4747 83.2961 46.6427 83.3495 46.824C83.4028 47.0053 83.4295 47.1733 83.4295 47.328C83.4295 47.4827 83.4028 47.6507 83.3495 47.832C83.2961 48.0133 83.2135 48.184 83.1015 48.344C82.9895 48.4987 82.8455 48.6293 82.6695 48.736C82.4988 48.8373 82.2935 48.888 82.0535 48.888ZM89.2032 48.896C89.0538 48.896 88.9258 48.8667 88.8192 48.808C88.7125 48.744 88.6218 48.6667 88.5472 48.576C88.4778 48.48 88.4245 48.3787 88.3872 48.272C88.3552 48.16 88.3392 48.0533 88.3392 47.952V45.28C88.3392 45.1787 88.3098 45.112 88.2512 45.08C88.1925 45.0427 88.1178 45.0187 88.0272 45.008H87.8432C87.7205 45.008 87.6218 45.0267 87.5472 45.064C87.4778 45.1013 87.4432 45.1733 87.4432 45.28V47.864C87.4432 48.072 87.4725 48.288 87.5312 48.512C87.5898 48.736 87.6858 48.9413 87.8192 49.128C87.9578 49.3093 88.1392 49.4613 88.3632 49.584C88.5872 49.7013 88.8672 49.76 89.2032 49.76C89.5392 49.76 89.8218 49.7013 90.0512 49.584C90.2805 49.4667 90.4618 49.3173 90.5952 49.136C90.7338 48.9493 90.8325 48.744 90.8912 48.52C90.9498 48.296 90.9792 48.0773 90.9792 47.864V45.28C90.9792 45.1787 90.9498 45.112 90.8912 45.08C90.8325 45.0427 90.7578 45.0187 90.6672 45.008H90.4832C90.3605 45.008 90.2618 45.0267 90.1872 45.064C90.1178 45.1013 90.0832 45.1733 90.0832 45.28C90.0832 45.648 90.0858 46.0107 90.0912 46.368C90.0965 46.7253 90.0992 47.088 90.0992 47.456C90.0992 47.536 90.0965 47.6187 90.0912 47.704C90.0912 47.784 90.0885 47.864 90.0832 47.944C90.0778 48.0453 90.0565 48.1547 90.0192 48.272C89.9872 48.384 89.9365 48.4853 89.8672 48.576C89.7978 48.6667 89.7072 48.744 89.5952 48.808C89.4885 48.8667 89.3578 48.896 89.2032 48.896ZM94.7204 48.544C94.6884 48.5227 94.6564 48.5067 94.6244 48.496C94.5924 48.48 94.5604 48.472 94.5284 48.472C94.4591 48.472 94.3871 48.5013 94.3124 48.56C94.2431 48.6187 94.1871 48.672 94.1444 48.72C94.1017 48.752 94.0617 48.792 94.0244 48.84C93.9871 48.888 93.9684 48.9413 93.9684 49C93.9684 49.064 93.9977 49.1253 94.0564 49.184C94.1364 49.2587 94.2324 49.3307 94.3444 49.4C94.4564 49.4693 94.5764 49.5307 94.7044 49.584C94.8377 49.632 94.9737 49.672 95.1124 49.704C95.2511 49.736 95.3844 49.752 95.5124 49.752C95.7791 49.752 96.0137 49.712 96.2164 49.632C96.4191 49.552 96.5897 49.448 96.7284 49.32C96.8724 49.1867 96.9791 49.0347 97.0484 48.864C97.1231 48.688 97.1604 48.5067 97.1604 48.32C97.1604 48.1173 97.1284 47.9467 97.0644 47.808C97.0004 47.664 96.9151 47.544 96.8084 47.448C96.7071 47.3467 96.5897 47.264 96.4564 47.2C96.3231 47.1307 96.1871 47.072 96.0484 47.024C95.9737 46.9973 95.9017 46.976 95.8324 46.96C95.7684 46.9387 95.7044 46.9147 95.6404 46.888C95.5657 46.8613 95.4884 46.832 95.4084 46.8C95.3284 46.7627 95.2537 46.72 95.1844 46.672C95.1151 46.624 95.0591 46.568 95.0164 46.504C94.9737 46.4347 94.9524 46.352 94.9524 46.256C94.9524 46.1333 95.0137 46.0213 95.1364 45.92C95.2591 45.8187 95.4031 45.768 95.5684 45.768C95.6751 45.768 95.7737 45.7867 95.8644 45.824C95.9551 45.856 96.0377 45.8933 96.1124 45.936C96.1497 45.9573 96.1844 45.9787 96.2164 46C96.2484 46.016 96.2804 46.032 96.3124 46.048C96.3764 46.0853 96.4324 46.104 96.4804 46.104C96.5497 46.104 96.6191 46.0773 96.6884 46.024C96.7577 45.9653 96.8164 45.912 96.8644 45.864C96.8804 45.8427 96.8964 45.824 96.9124 45.808C96.9284 45.792 96.9417 45.7787 96.9524 45.768C97.0111 45.7093 97.0404 45.6453 97.0404 45.576C97.0404 45.5333 97.0297 45.4987 97.0084 45.472C96.9924 45.4453 96.9684 45.4187 96.9364 45.392C96.8617 45.3227 96.7711 45.2587 96.6644 45.2C96.5577 45.1413 96.4431 45.0907 96.3204 45.048C96.2031 45 96.0804 44.9627 95.9524 44.936C95.8244 44.9093 95.7017 44.896 95.5844 44.896C95.3337 44.896 95.1097 44.936 94.9124 45.016C94.7151 45.096 94.5471 45.2027 94.4084 45.336C94.2751 45.4693 94.1711 45.6213 94.0964 45.792C94.0271 45.9573 93.9924 46.128 93.9924 46.304C93.9924 46.5493 94.0351 46.7547 94.1204 46.92C94.2057 47.08 94.3177 47.2133 94.4564 47.32C94.5951 47.4267 94.7551 47.5173 94.9364 47.592C95.1231 47.6613 95.3124 47.7253 95.5044 47.784C95.5684 47.8107 95.6297 47.8347 95.6884 47.856C95.7471 47.872 95.8031 47.8933 95.8564 47.92C95.9577 47.9733 96.0377 48.0347 96.0964 48.104C96.1551 48.1733 96.1844 48.2613 96.1844 48.368C96.1844 48.5227 96.1177 48.648 95.9844 48.744C95.8564 48.84 95.6911 48.888 95.4884 48.888C95.3817 48.888 95.2831 48.8667 95.1924 48.824C95.1017 48.7813 95.0164 48.7333 94.9364 48.68C94.8937 48.6533 94.8537 48.6293 94.8164 48.608C94.7844 48.5813 94.7524 48.56 94.7204 48.544ZM104.963 48.544C104.931 48.5227 104.899 48.5067 104.867 48.496C104.835 48.48 104.803 48.472 104.771 48.472C104.701 48.472 104.629 48.5013 104.555 48.56C104.485 48.6187 104.429 48.672 104.387 48.72C104.344 48.752 104.304 48.792 104.267 48.84C104.229 48.888 104.211 48.9413 104.211 49C104.211 49.064 104.24 49.1253 104.299 49.184C104.379 49.2587 104.475 49.3307 104.587 49.4C104.699 49.4693 104.819 49.5307 104.947 49.584C105.08 49.632 105.216 49.672 105.355 49.704C105.493 49.736 105.627 49.752 105.755 49.752C106.021 49.752 106.256 49.712 106.459 49.632C106.661 49.552 106.832 49.448 106.971 49.32C107.115 49.1867 107.221 49.0347 107.291 48.864C107.365 48.688 107.403 48.5067 107.403 48.32C107.403 48.1173 107.371 47.9467 107.307 47.808C107.243 47.664 107.157 47.544 107.051 47.448C106.949 47.3467 106.832 47.264 106.699 47.2C106.565 47.1307 106.429 47.072 106.291 47.024C106.216 46.9973 106.144 46.976 106.075 46.96C106.011 46.9387 105.947 46.9147 105.883 46.888C105.808 46.8613 105.731 46.832 105.651 46.8C105.571 46.7627 105.496 46.72 105.427 46.672C105.357 46.624 105.301 46.568 105.259 46.504C105.216 46.4347 105.195 46.352 105.195 46.256C105.195 46.1333 105.256 46.0213 105.379 45.92C105.501 45.8187 105.645 45.768 105.811 45.768C105.917 45.768 106.016 45.7867 106.107 45.824C106.197 45.856 106.28 45.8933 106.355 45.936C106.392 45.9573 106.427 45.9787 106.459 46C106.491 46.016 106.523 46.032 106.555 46.048C106.619 46.0853 106.675 46.104 106.723 46.104C106.792 46.104 106.861 46.0773 106.931 46.024C107 45.9653 107.059 45.912 107.107 45.864C107.123 45.8427 107.139 45.824 107.155 45.808C107.171 45.792 107.184 45.7787 107.195 45.768C107.253 45.7093 107.283 45.6453 107.283 45.576C107.283 45.5333 107.272 45.4987 107.251 45.472C107.235 45.4453 107.211 45.4187 107.179 45.392C107.104 45.3227 107.013 45.2587 106.907 45.2C106.8 45.1413 106.685 45.0907 106.563 45.048C106.445 45 106.323 44.9627 106.195 44.936C106.067 44.9093 105.944 44.896 105.827 44.896C105.576 44.896 105.352 44.936 105.155 45.016C104.957 45.096 104.789 45.2027 104.651 45.336C104.517 45.4693 104.413 45.6213 104.339 45.792C104.269 45.9573 104.235 46.128 104.235 46.304C104.235 46.5493 104.277 46.7547 104.363 46.92C104.448 47.08 104.56 47.2133 104.699 47.32C104.837 47.4267 104.997 47.5173 105.179 47.592C105.365 47.6613 105.555 47.7253 105.747 47.784C105.811 47.8107 105.872 47.8347 105.931 47.856C105.989 47.872 106.045 47.8933 106.099 47.92C106.2 47.9733 106.28 48.0347 106.339 48.104C106.397 48.1733 106.427 48.2613 106.427 48.368C106.427 48.5227 106.36 48.648 106.227 48.744C106.099 48.84 105.933 48.888 105.731 48.888C105.624 48.888 105.525 48.8667 105.435 48.824C105.344 48.7813 105.259 48.7333 105.179 48.68C105.136 48.6533 105.096 48.6293 105.059 48.608C105.027 48.5813 104.995 48.56 104.963 48.544ZM110.523 45C110.432 45 110.358 45.0187 110.299 45.056C110.24 45.0933 110.211 45.1493 110.211 45.224C110.211 45.2827 110.23 45.344 110.267 45.408L111.523 47.648C111.539 47.6693 111.547 47.7013 111.547 47.744V49.376C111.547 49.4827 111.579 49.5547 111.643 49.592C111.712 49.624 111.792 49.6427 111.883 49.648H112.003H112.075C112.198 49.648 112.294 49.6293 112.363 49.592C112.438 49.5547 112.475 49.4827 112.475 49.376V47.744C112.475 47.712 112.483 47.68 112.499 47.648L113.763 45.408C113.779 45.3813 113.792 45.352 113.803 45.32C113.819 45.288 113.827 45.256 113.827 45.224C113.827 45.1493 113.795 45.0933 113.731 45.056C113.672 45.0187 113.6 45 113.515 45H113.123C113.064 45 113.014 45.016 112.971 45.048C112.928 45.0747 112.896 45.1093 112.875 45.152C112.736 45.392 112.598 45.6347 112.459 45.88C112.32 46.12 112.152 46.3627 111.955 46.608L111.155 45.152C111.134 45.1093 111.099 45.0747 111.051 45.048C111.008 45.016 110.958 45 110.899 45H110.523ZM117.392 48.544C117.36 48.5227 117.328 48.5067 117.296 48.496C117.264 48.48 117.232 48.472 117.2 48.472C117.131 48.472 117.059 48.5013 116.984 48.56C116.915 48.6187 116.859 48.672 116.816 48.72C116.774 48.752 116.734 48.792 116.696 48.84C116.659 48.888 116.64 48.9413 116.64 49C116.64 49.064 116.67 49.1253 116.728 49.184C116.808 49.2587 116.904 49.3307 117.016 49.4C117.128 49.4693 117.248 49.5307 117.376 49.584C117.51 49.632 117.646 49.672 117.784 49.704C117.923 49.736 118.056 49.752 118.184 49.752C118.451 49.752 118.686 49.712 118.888 49.632C119.091 49.552 119.262 49.448 119.4 49.32C119.544 49.1867 119.651 49.0347 119.72 48.864C119.795 48.688 119.832 48.5067 119.832 48.32C119.832 48.1173 119.8 47.9467 119.736 47.808C119.672 47.664 119.587 47.544 119.48 47.448C119.379 47.3467 119.262 47.264 119.128 47.2C118.995 47.1307 118.859 47.072 118.72 47.024C118.646 46.9973 118.574 46.976 118.504 46.96C118.44 46.9387 118.376 46.9147 118.312 46.888C118.238 46.8613 118.16 46.832 118.08 46.8C118 46.7627 117.926 46.72 117.856 46.672C117.787 46.624 117.731 46.568 117.688 46.504C117.646 46.4347 117.624 46.352 117.624 46.256C117.624 46.1333 117.686 46.0213 117.808 45.92C117.931 45.8187 118.075 45.768 118.24 45.768C118.347 45.768 118.446 45.7867 118.536 45.824C118.627 45.856 118.71 45.8933 118.784 45.936C118.822 45.9573 118.856 45.9787 118.888 46C118.92 46.016 118.952 46.032 118.984 46.048C119.048 46.0853 119.104 46.104 119.152 46.104C119.222 46.104 119.291 46.0773 119.36 46.024C119.43 45.9653 119.488 45.912 119.536 45.864C119.552 45.8427 119.568 45.824 119.584 45.808C119.6 45.792 119.614 45.7787 119.624 45.768C119.683 45.7093 119.712 45.6453 119.712 45.576C119.712 45.5333 119.702 45.4987 119.68 45.472C119.664 45.4453 119.64 45.4187 119.608 45.392C119.534 45.3227 119.443 45.2587 119.336 45.2C119.23 45.1413 119.115 45.0907 118.992 45.048C118.875 45 118.752 44.9627 118.624 44.936C118.496 44.9093 118.374 44.896 118.256 44.896C118.006 44.896 117.782 44.936 117.584 45.016C117.387 45.096 117.219 45.2027 117.08 45.336C116.947 45.4693 116.843 45.6213 116.768 45.792C116.699 45.9573 116.664 46.128 116.664 46.304C116.664 46.5493 116.707 46.7547 116.792 46.92C116.878 47.08 116.99 47.2133 117.128 47.32C117.267 47.4267 117.427 47.5173 117.608 47.592C117.795 47.6613 117.984 47.7253 118.176 47.784C118.24 47.8107 118.302 47.8347 118.36 47.856C118.419 47.872 118.475 47.8933 118.528 47.92C118.63 47.9733 118.71 48.0347 118.768 48.104C118.827 48.1733 118.856 48.2613 118.856 48.368C118.856 48.5227 118.79 48.648 118.656 48.744C118.528 48.84 118.363 48.888 118.16 48.888C118.054 48.888 117.955 48.8667 117.864 48.824C117.774 48.7813 117.688 48.7333 117.608 48.68C117.566 48.6533 117.526 48.6293 117.488 48.608C117.456 48.5813 117.424 48.56 117.392 48.544ZM122.793 45C122.702 45 122.635 45.024 122.593 45.072C122.555 45.12 122.537 45.1733 122.537 45.232V45.632C122.537 45.6907 122.555 45.744 122.593 45.792C122.635 45.8347 122.702 45.856 122.793 45.856H123.657C123.71 45.856 123.75 45.872 123.777 45.904C123.803 45.936 123.817 45.9733 123.817 46.016V49.416C123.817 49.4747 123.835 49.528 123.873 49.576C123.915 49.624 123.982 49.648 124.073 49.648H124.465C124.555 49.648 124.619 49.624 124.657 49.576C124.699 49.528 124.721 49.4747 124.721 49.416V46.016C124.721 45.9733 124.734 45.936 124.761 45.904C124.787 45.872 124.83 45.856 124.889 45.856H125.745C125.83 45.856 125.894 45.8347 125.937 45.792C125.979 45.744 126.001 45.6907 126.001 45.632V45.232C126.001 45.1733 125.979 45.12 125.937 45.072C125.894 45.024 125.83 45 125.745 45H122.793ZM131.887 45.872C131.972 45.872 132.036 45.848 132.079 45.8C132.122 45.752 132.143 45.6987 132.143 45.64V45.232C132.143 45.1733 132.122 45.12 132.079 45.072C132.036 45.024 131.972 45 131.887 45H129.295C129.204 45 129.138 45.024 129.095 45.072C129.058 45.12 129.039 45.1733 129.039 45.232V49.416C129.039 49.4747 129.058 49.528 129.095 49.576C129.138 49.624 129.204 49.648 129.295 49.648H131.887C131.972 49.648 132.036 49.624 132.079 49.576C132.122 49.528 132.143 49.4747 132.143 49.416V49.008C132.143 48.9493 132.122 48.896 132.079 48.848C132.036 48.8 131.972 48.776 131.887 48.776H130.111C130.052 48.776 130.01 48.76 129.983 48.728C129.962 48.696 129.951 48.6587 129.951 48.616V47.872C129.951 47.8293 129.962 47.792 129.983 47.76C130.01 47.728 130.052 47.712 130.111 47.712H131.551C131.642 47.712 131.708 47.688 131.751 47.64C131.794 47.592 131.815 47.5387 131.815 47.48V47.12C131.815 47.0613 131.794 47.0107 131.751 46.968C131.708 46.92 131.642 46.896 131.551 46.896H130.111C130.052 46.896 130.01 46.88 129.983 46.848C129.962 46.816 129.951 46.7787 129.951 46.736V46.032C129.951 45.9893 129.962 45.952 129.983 45.92C130.01 45.888 130.052 45.872 130.111 45.872H131.887ZM136.32 47.136C136.363 47.184 136.398 47.2373 136.424 47.296C136.451 47.3493 136.478 47.4027 136.504 47.456L137.24 49.112C137.272 49.1867 137.32 49.2293 137.384 49.24C137.448 49.2507 137.515 49.256 137.584 49.256C137.659 49.256 137.728 49.2507 137.792 49.24C137.856 49.2293 137.907 49.1867 137.944 49.112C138.078 48.8293 138.203 48.5493 138.32 48.272C138.438 47.9893 138.56 47.7067 138.688 47.424C138.731 47.312 138.787 47.2133 138.856 47.128C138.862 47.1227 138.867 47.1173 138.872 47.112C138.878 47.1067 138.888 47.104 138.904 47.104C138.952 47.1467 138.976 47.1947 138.976 47.248C138.987 47.296 138.992 47.344 138.992 47.392C138.992 47.4347 138.992 47.464 138.992 47.48V49.416C138.992 49.4747 139.014 49.528 139.056 49.576C139.099 49.624 139.163 49.648 139.248 49.648H139.64C139.731 49.648 139.798 49.624 139.84 49.576C139.883 49.528 139.904 49.4747 139.904 49.416V45.232C139.904 45.1733 139.883 45.12 139.84 45.072C139.798 45.024 139.731 45 139.64 45H138.928C138.87 45 138.819 45.016 138.776 45.048C138.734 45.0747 138.704 45.1093 138.688 45.152L137.744 47.312C137.734 47.3387 137.712 47.376 137.68 47.424C137.654 47.4667 137.624 47.488 137.592 47.488C137.56 47.488 137.528 47.4667 137.496 47.424C137.47 47.376 137.451 47.3387 137.44 47.312L136.504 45.152C136.483 45.1093 136.451 45.0747 136.408 45.048C136.371 45.016 136.323 45 136.264 45H135.544C135.454 45 135.387 45.024 135.344 45.072C135.307 45.12 135.288 45.1733 135.288 45.232V49.416C135.288 49.4747 135.307 49.528 135.344 49.576C135.387 49.624 135.454 49.648 135.544 49.648H135.928C136.019 49.648 136.086 49.624 136.128 49.576C136.171 49.528 136.192 49.4747 136.192 49.416V47.52C136.192 47.5093 136.192 47.48 136.192 47.432C136.192 47.384 136.195 47.3333 136.2 47.28C136.206 47.2533 136.211 47.2293 136.216 47.208C136.222 47.1813 136.235 47.1467 136.256 47.104L136.32 47.136Z" fill="#EFEDF8"/>
  <g opacity="0.7" filter="url(#filter0_d_158_16670)">
    <path opacity="0.6" d="M77.7136 17.0001C76.0366 17.0001 74.2084 17.8492 72.2762 19.5217C71.3595 20.3142 70.5678 21.1633 69.9741 21.8426C69.9741 21.8426 69.9741 21.8426 69.9793 21.8477V21.8426C69.9793 21.8426 70.9167 22.8512 71.9532 23.9319C72.5105 23.2784 73.3127 22.3881 74.2344 21.5853C75.9533 20.0981 77.073 19.7842 77.7136 19.7842C80.1252 19.7842 82.0834 21.6728 82.0834 23.9937C82.0834 26.2991 80.1199 28.1877 77.7136 28.2032C77.6042 28.2032 77.4636 28.1877 77.2865 28.1517C77.9897 28.4502 78.7449 28.6663 79.4637 28.6663C83.8802 28.6663 84.7449 25.8205 84.8021 25.6147C84.9324 25.0949 85.0001 24.5494 85.0001 23.9885C85.0001 20.1392 81.7292 17.0001 77.7136 17.0001Z" fill="#EFEDF8"/>
    <path opacity="0.6" d="M62.2864 31.0002C63.9635 31.0002 65.7917 30.1511 67.7239 28.4786C68.6406 27.6861 69.4323 26.837 70.026 26.1577C70.026 26.1577 70.026 26.1577 70.0207 26.1526V26.1577C70.0207 26.1577 69.0833 25.1491 68.0468 24.0684C67.4896 24.722 66.6875 25.6122 65.7656 26.415C64.0469 27.9022 62.9271 28.2162 62.2864 28.2162C59.875 28.211 57.9167 26.3224 57.9167 24.0015C57.9167 21.6961 59.8802 19.8074 62.2864 19.792C62.3958 19.792 62.5364 19.8074 62.7135 19.8435C62.0104 19.545 61.2552 19.3289 60.5364 19.3289C56.1198 19.3289 55.2604 22.1747 55.1979 22.3753C55.0677 22.9003 55 23.4406 55 24.0015C55 27.8611 58.2708 31.0002 62.2864 31.0002Z" fill="#EFEDF8"/>
    <path d="M79.4534 28.6046C77.1929 28.548 74.844 26.788 74.3648 26.3506C73.1253 25.2184 70.2659 22.1565 70.042 21.9146C67.9482 19.5938 65.1097 17.0001 62.2868 17.0001H62.2816H62.2764C58.8493 17.0156 55.9691 19.3107 55.1982 22.3726C55.2555 22.1719 56.3857 19.2695 60.5316 19.3725C62.792 19.4291 65.1513 21.2148 65.6357 21.6522C66.8753 22.7843 69.7347 25.8463 69.9587 26.0881C72.0524 28.4039 74.8909 30.9975 77.7138 30.9975H77.719H77.7242C81.1513 30.9821 84.0367 28.6869 84.8023 25.625C84.7398 25.8257 83.6044 28.7023 79.4534 28.6046Z" fill="#EFEDF8"/>
  </g>
  <defs>
    <filter id="filter0_d_158_16670" x="38" y="0.00012207" width="64" height="48.0001" filterUnits="userSpaceOnUse" color-interpolation-filters="sRGB">
      <feFlood flood-opacity="0" result="BackgroundImageFix"/>
      <feColorMatrix in="SourceAlpha" type="matrix" values="0 0 0 0 0 0 0 0 0 0 0 0 0 0 0 0 0 0 127 0" result="hardAlpha"/>
      <feOffset/>
      <feGaussianBlur stdDeviation="8.5"/>
      <feComposite in2="hardAlpha" operator="out"/>
      <feColorMatrix type="matrix" values="0 0 0 0 1 0 0 0 0 1 0 0 0 0 1 0 0 0 0.65 0"/>
      <feBlend mode="normal" in2="BackgroundImageFix" result="effect1_dropShadow_158_16670"/>
      <feBlend mode="normal" in="SourceGraphic" in2="effect1_dropShadow_158_16670" result="shape"/>
    </filter>
  </defs>
</svg>
