<svg width="117" height="20" viewBox="0 0 117 20" fill="none" xmlns="http://www.w3.org/2000/svg">
    <path fill-rule="evenodd" clip-rule="evenodd" d="M60.8031 19.0538C62.5659 19.0538 63.4696 17.8998 63.7087 16.9468L62.5659 16.6058C62.3973 17.1828 61.8753 17.8735 60.8031 17.8735C59.7932 17.8735 58.8547 17.1478 58.8547 15.8277C58.8547 14.4201 59.8467 13.7556 60.7852 13.7556C61.8753 13.7556 62.3624 14.4113 62.5124 15.0058L63.6641 14.6473C63.4161 13.6419 62.5213 12.5928 60.7852 12.5928C59.1027 12.5928 57.5879 13.8518 57.5879 15.8277C57.5879 17.8035 59.0492 19.0538 60.8031 19.0538ZM1.40027 18.5182C1.40027 18.7416 1.21889 18.9226 0.995032 18.9226H0.565397C0.341623 18.9226 0.160156 18.7416 0.160156 18.5182V13.1282C0.160156 12.9049 0.341623 12.7239 0.565397 12.7239H0.995032C1.21889 12.7239 1.40027 12.9049 1.40027 13.1282V18.5182ZM9.6443 18.5182C9.6443 18.7416 9.46292 18.9226 9.23906 18.9226H8.58031C8.44293 18.9226 8.31479 18.8531 8.24015 18.7379L5.50761 14.5249V18.5182C5.50761 18.7416 5.32614 18.9226 5.10237 18.9226H4.6904C4.46654 18.9226 4.28516 18.7416 4.28516 18.5182V13.1282C4.28516 12.9049 4.46654 12.7239 4.6904 12.7239H5.36366C5.64085 12.7239 5.89883 12.8652 6.04755 13.0986L8.42194 16.8242V13.1282C8.42194 12.9049 8.60333 12.7239 8.82718 12.7239H9.23906C9.46292 12.7239 9.6443 12.9049 9.6443 13.1282V18.5182ZM16.7359 13.8692C16.9597 13.8692 17.1411 13.6881 17.1411 13.4648V13.1282C17.1411 12.9049 16.9597 12.7239 16.7359 12.7239H12.3466C12.1228 12.7239 11.9414 12.9049 11.9414 13.1282V13.4648C11.9414 13.6881 12.1228 13.8692 12.3466 13.8692H13.9256V18.5182C13.9256 18.7416 14.1071 18.9226 14.3309 18.9226H14.7517C14.9754 18.9226 15.1569 18.7416 15.1569 18.5182V13.8692H16.7359ZM23.3701 18.5182C23.3701 18.7416 23.1894 18.9226 22.9649 18.9226H19.8427C19.6189 18.9226 19.4375 18.7416 19.4375 18.5182V13.1282C19.4375 12.9049 19.6189 12.7239 19.8427 12.7239H22.9649C23.1894 12.7239 23.3701 12.9049 23.3701 13.1282V13.4561C23.3701 13.6794 23.1894 13.8605 22.9649 13.8605H20.66V15.2768H22.7084C22.9325 15.2768 23.114 15.4578 23.114 15.6811V15.9478C23.114 16.1711 22.9325 16.3521 22.7084 16.3521H20.66V17.786H22.9649C23.1894 17.786 23.3701 17.9671 23.3701 18.1903V18.5182ZM28.9718 18.7033C29.0407 18.838 29.1801 18.9226 29.3317 18.9226H29.775C30.0806 18.9226 30.2767 18.5982 30.1332 18.3289L29.1023 16.3871C29.9257 16.1511 30.4396 15.4954 30.4396 14.6298C30.4396 13.5544 29.6607 12.7239 28.4377 12.7239H26.3896C26.1659 12.7239 25.9844 12.9049 25.9844 13.1282V18.5182C25.9844 18.7416 26.1659 18.9226 26.3896 18.9226H26.8103C27.034 18.9226 27.2155 18.7416 27.2155 18.5182V16.5358H27.8533L28.9718 18.7033ZM27.2155 15.4954V13.773H28.2075C28.8275 13.773 29.1906 14.114 29.1906 14.6385C29.1906 15.1457 28.8275 15.4954 28.2075 15.4954H27.2155ZM38.3413 18.5182C38.3413 18.7416 38.1598 18.9226 37.9361 18.9226H37.2772C37.1402 18.9226 37.0121 18.8531 36.9376 18.7379L34.2046 14.5249V18.5182C34.2046 18.7416 34.0231 18.9226 33.7994 18.9226H33.3877C33.164 18.9226 32.9824 18.7416 32.9824 18.5182V13.1282C32.9824 12.9049 33.164 12.7239 33.3877 12.7239H34.0612C34.3384 12.7239 34.5961 12.8652 34.7444 13.0986L37.1191 16.8242V13.1282C37.1191 12.9049 37.3007 12.7239 37.5244 12.7239H37.9361C38.1598 12.7239 38.3413 12.9049 38.3413 13.1282V18.5182ZM44.7596 18.9226C44.9833 18.9226 45.1649 18.7416 45.1649 18.5182V18.1903C45.1649 17.9671 44.9833 17.786 44.7596 17.786H42.4546V16.3521H44.5027C44.7264 16.3521 44.908 16.1711 44.908 15.9478V15.6811C44.908 15.4578 44.7264 15.2768 44.5027 15.2768H42.4546V13.8605H44.7596C44.9833 13.8605 45.1649 13.6794 45.1649 13.4561V13.1282C45.1649 12.9049 44.9833 12.7239 44.7596 12.7239H41.6377C41.4132 12.7239 41.2324 12.9049 41.2324 13.1282V18.5182C41.2324 18.7416 41.4132 18.9226 41.6377 18.9226H44.7596ZM52.3856 13.4648C52.3856 13.6881 52.2041 13.8692 51.9804 13.8692H50.4015V18.5182C50.4015 18.7416 50.22 18.9226 49.9963 18.9226H49.5748C49.3512 18.9226 49.1696 18.7416 49.1696 18.5182V13.8692H47.5908C47.3671 13.8692 47.1855 13.6881 47.1855 13.4648V13.1282C47.1855 12.9049 47.3671 12.7239 47.5908 12.7239H51.9804C52.2041 12.7239 52.3856 12.9049 52.3856 13.1282V13.4648ZM68.9233 13.7556C67.958 13.7556 66.9652 14.4201 66.9652 15.8189C66.9652 17.2178 67.958 17.8822 68.9233 17.8822C69.8975 17.8822 70.8895 17.2178 70.8895 15.8189C70.8895 14.4201 69.8975 13.7556 68.9233 13.7556ZM68.9233 19.0538C67.2221 19.0538 65.6992 17.8211 65.6992 15.8277C65.6992 13.8255 67.2221 12.5928 68.9233 12.5928C70.6326 12.5928 72.1563 13.8255 72.1563 15.8277C72.1563 17.8211 70.6326 19.0538 68.9233 19.0538ZM81.2693 18.9226C81.4938 18.9226 81.6746 18.7416 81.6746 18.5182V13.1282C81.6746 12.9049 81.4938 12.7239 81.2693 12.7239H80.2814C80.1168 12.7239 79.9685 12.8229 79.9061 12.9746L78.1668 17.2002L76.3846 12.9714C76.3214 12.8214 76.1738 12.7239 76.0109 12.7239H75.0732C74.8495 12.7239 74.668 12.9049 74.668 13.1282V18.5182C74.668 18.7416 74.8495 18.9226 75.0732 18.9226H75.4323C75.6559 18.9226 75.8375 18.7416 75.8375 18.5182V14.6123L77.5403 18.6743C77.6035 18.8247 77.751 18.9226 77.9139 18.9226H78.3929C78.5567 18.9226 78.7042 18.8241 78.7666 18.6732L80.4702 14.5774V18.5182C80.4702 18.7416 80.6518 18.9226 80.8755 18.9226H81.2693ZM85.7956 13.773V15.5478H86.7608C87.372 15.5478 87.7448 15.1981 87.7448 14.6648C87.7448 14.114 87.372 13.773 86.7608 13.773H85.7956ZM88.9759 14.6561C88.9759 15.7838 88.1516 16.5882 86.9116 16.5882H85.7867V18.5182C85.7867 18.7416 85.6051 18.9226 85.3814 18.9226H84.9697C84.746 18.9226 84.5645 18.7416 84.5645 18.5182V13.1282C84.5645 12.9049 84.746 12.7239 84.9697 12.7239H86.9116C88.1516 12.7239 88.9759 13.537 88.9759 14.6561ZM93.7006 19.0625C95.0476 19.0625 96.1191 18.2494 96.1191 16.7281V13.1282C96.1191 12.9049 95.9375 12.7239 95.7138 12.7239H95.3021C95.0784 12.7239 94.8969 12.9049 94.8969 13.1282V16.6407C94.8969 17.4538 94.4446 17.8821 93.7006 17.8821C92.9744 17.8821 92.514 17.4538 92.514 16.6407V13.1282C92.514 12.9049 92.3325 12.7239 92.1088 12.7239H91.6963C91.4726 12.7239 91.291 12.9049 91.291 13.1282V16.7281C91.291 18.2494 92.3633 19.0625 93.7006 19.0625ZM103.563 13.4648C103.563 13.6881 103.381 13.8692 103.157 13.8692H101.578V18.5182C101.578 18.7416 101.397 18.9226 101.173 18.9226H100.753C100.529 18.9226 100.347 18.7416 100.347 18.5182V13.8692H98.7685C98.544 13.8692 98.3633 13.6881 98.3633 13.4648V13.1282C98.3633 12.9049 98.544 12.7239 98.7685 12.7239H103.157C103.381 12.7239 103.563 12.9049 103.563 13.1282V13.4648ZM109.385 18.9226C109.609 18.9226 109.791 18.7416 109.791 18.5182V18.1903C109.791 17.9671 109.609 17.786 109.385 17.786H107.08V16.3521H109.129C109.352 16.3521 109.534 16.1711 109.534 15.9478V15.6811C109.534 15.4578 109.352 15.2768 109.129 15.2768H107.08V13.8605H109.385C109.609 13.8605 109.791 13.6794 109.791 13.4561V13.1282C109.791 12.9049 109.609 12.7239 109.385 12.7239H106.263C106.039 12.7239 105.857 12.9049 105.857 13.1282V18.5182C105.857 18.7416 106.039 18.9226 106.263 18.9226H109.385ZM115.752 18.9226C115.6 18.9226 115.461 18.838 115.391 18.7033L114.273 16.5358H113.635V18.5182C113.635 18.7416 113.454 18.9226 113.23 18.9226H112.81C112.585 18.9226 112.404 18.7416 112.404 18.5182V12.7239H114.858C116.08 12.7239 116.86 13.5544 116.86 14.6298C116.86 15.4954 116.346 16.1511 115.522 16.3871L116.553 18.3289C116.696 18.5982 116.5 18.9226 116.195 18.9226H115.752ZM113.635 13.773V15.4954H114.627C115.247 15.4954 115.611 15.1457 115.611 14.6385C115.611 14.114 115.247 13.773 114.627 13.773H113.635Z" fill="white"/>
    <path d="M32.1286 6.54947V0.784916H31.4688C31.3262 1.40763 30.7824 1.87911 29.98 1.9147V2.3417H31.3975V6.54947H32.1286ZM35.5235 6.01572C35.0956 6.01572 34.7835 5.85559 34.5517 5.60651C34.1684 5.20619 34.0079 4.539 34.0079 3.6672C34.0079 2.7954 34.1684 2.1282 34.5517 1.72788C34.7835 1.4788 35.0956 1.31867 35.5235 1.31867C35.9514 1.31867 36.2635 1.4788 36.4953 1.72788C36.8786 2.1282 37.0391 2.7954 37.0391 3.6672C37.0391 4.539 36.8786 5.20619 36.4953 5.60651C36.2635 5.85559 35.9514 6.01572 35.5235 6.01572ZM35.5235 6.67402C36.3081 6.67402 36.8697 6.32708 37.2353 5.79332C37.6364 5.21509 37.7702 4.45004 37.7702 3.6672C37.7702 2.88435 37.6364 2.1193 37.2353 1.54107C36.8697 1.00731 36.3081 0.660374 35.5235 0.660374C34.739 0.660374 34.1773 1.00731 33.8118 1.54107C33.4106 2.1193 33.2769 2.88435 33.2769 3.6672C33.2769 4.45004 33.4106 5.21509 33.8118 5.79332C34.1773 6.32708 34.739 6.67402 35.5235 6.67402ZM40.9824 6.01572C40.5544 6.01572 40.2424 5.85559 40.0106 5.60651C39.6272 5.20619 39.4667 4.539 39.4667 3.6672C39.4667 2.7954 39.6272 2.1282 40.0106 1.72788C40.2424 1.4788 40.5544 1.31867 40.9824 1.31867C41.4103 1.31867 41.7223 1.4788 41.9541 1.72788C42.3375 2.1282 42.498 2.7954 42.498 3.6672C42.498 4.539 42.3375 5.20619 41.9541 5.60651C41.7223 5.85559 41.4103 6.01572 40.9824 6.01572ZM40.9824 6.67402C41.7669 6.67402 42.3286 6.32708 42.6941 5.79332C43.0953 5.21509 43.229 4.45004 43.229 3.6672C43.229 2.88435 43.0953 2.1193 42.6941 1.54107C42.3286 1.00731 41.7669 0.660374 40.9824 0.660374C40.1978 0.660374 39.6361 1.00731 39.2706 1.54107C38.8694 2.1193 38.7357 2.88435 38.7357 3.6672C38.7357 4.45004 38.8694 5.21509 39.2706 5.79332C39.6361 6.32708 40.1978 6.67402 40.9824 6.67402ZM44.6315 2.08372C44.6315 1.63003 44.9702 1.29198 45.3982 1.29198C45.8439 1.29198 46.1738 1.63003 46.1738 2.08372C46.1738 2.53741 45.8439 2.87546 45.3982 2.87546C44.9702 2.87546 44.6315 2.53741 44.6315 2.08372ZM44.0074 2.08372C44.0074 2.85767 44.6404 3.47148 45.3982 3.47148C46.1649 3.47148 46.8068 2.85767 46.8068 2.08372C46.8068 1.30978 46.1649 0.695957 45.3982 0.695957C44.6404 0.695957 44.0074 1.30978 44.0074 2.08372ZM48.1619 5.20619C48.1619 4.7525 48.5007 4.41445 48.9286 4.41445C49.3744 4.41445 49.7043 4.7525 49.7043 5.20619C49.7043 5.65988 49.3744 5.99793 48.9286 5.99793C48.5007 5.99793 48.1619 5.65988 48.1619 5.20619ZM47.5379 5.20619C47.5379 5.98014 48.1708 6.59395 48.9286 6.59395C49.6954 6.59395 50.3373 5.98014 50.3373 5.20619C50.3373 4.43224 49.6954 3.81842 48.9286 3.81842C48.1708 3.81842 47.5379 4.43224 47.5379 5.20619ZM45.4249 6.54947L49.5884 0.784916H48.9019L44.7206 6.54947H45.4249ZM55.4478 2.16378C54.2174 2.16378 53.3081 3.10675 53.3081 4.41445C53.3081 5.73105 54.2174 6.67402 55.4478 6.67402C56.6781 6.67402 57.5874 5.73105 57.5874 4.41445C57.5874 3.10675 56.6781 2.16378 55.4478 2.16378ZM55.4478 2.80429C56.2145 2.80429 56.8742 3.38253 56.8742 4.41445C56.8742 5.45528 56.2145 6.03351 55.4478 6.03351C54.681 6.03351 54.0213 5.45528 54.0213 4.41445C54.0213 3.38253 54.681 2.80429 55.4478 2.80429ZM59.4005 4.04082C59.4005 3.37363 59.7838 2.80429 60.4703 2.80429C61.2459 2.80429 61.5312 3.30246 61.5312 3.92518V6.54947H62.2445V3.81842C62.2445 2.89325 61.7452 2.16378 60.7199 2.16378C60.1583 2.16378 59.659 2.43066 59.3826 2.92883V2.28833H58.6873V6.54947H59.4005V4.04082ZM65.8714 4.3077V3.68499H63.491V4.3077H65.8714ZM68.9941 2.80429C69.7609 2.80429 70.1086 3.32915 70.2245 3.78284L70.8664 3.50707C70.6881 2.83098 70.0907 2.16378 68.9941 2.16378C67.7906 2.16378 66.8812 3.08896 66.8812 4.41445C66.8812 5.71326 67.7728 6.67402 69.0031 6.67402C70.0996 6.67402 70.697 5.98013 70.902 5.34852L70.278 5.07275C70.1531 5.46417 69.8144 6.03351 69.0031 6.03351C68.2453 6.03351 67.5944 5.43748 67.5944 4.41445C67.5944 3.38253 68.2453 2.80429 68.9941 2.80429ZM72.634 4.00524C72.634 3.34694 73.0263 2.80429 73.7039 2.80429C74.4795 2.80429 74.7648 3.30246 74.7648 3.92518V6.54947H75.478V3.81842C75.478 2.89325 74.9788 2.16378 73.9535 2.16378C73.4007 2.16378 72.9104 2.41287 72.634 2.85767V0.117722H71.9208V6.54947H72.634V4.00524ZM76.5106 5.41969C76.5106 6.06909 77.0366 6.67402 77.9192 6.67402C78.6859 6.67402 79.1495 6.25591 79.3367 5.90897C79.3367 6.23812 79.3724 6.45162 79.3902 6.54947H80.0856C80.0589 6.41603 80.0321 6.19364 80.0321 5.8378V3.68499C80.0321 2.85767 79.5239 2.16378 78.3115 2.16378C77.3932 2.16378 76.68 2.71533 76.5908 3.52486L77.2684 3.68499C77.3308 3.14234 77.7052 2.76871 78.3293 2.76871C78.9979 2.76871 79.3189 3.13344 79.3189 3.61382C79.3189 3.80063 79.2476 3.93407 78.9355 3.97855L77.7855 4.14758C77.0366 4.25433 76.5106 4.67243 76.5106 5.41969ZM78.0083 6.06909C77.518 6.06909 77.2238 5.73105 77.2238 5.38411C77.2238 4.966 77.518 4.73471 77.9281 4.67243L79.3189 4.46783V4.7525C79.3189 5.65988 78.7483 6.06909 78.0083 6.06909ZM82.0891 6.54947V2.28833H81.3759V6.54947H82.0891ZM81.1976 0.606998C81.1976 0.900564 81.4383 1.14075 81.7325 1.14075C82.0267 1.14075 82.2674 0.900564 82.2674 0.606998C82.2674 0.313433 82.0267 0.0732422 81.7325 0.0732422C81.4383 0.0732422 81.1976 0.313433 81.1976 0.606998ZM84.1956 4.04082C84.1956 3.37363 84.5789 2.80429 85.2654 2.80429C86.041 2.80429 86.3263 3.30246 86.3263 3.92518V6.54947H87.0395V3.81842C87.0395 2.89325 86.5403 2.16378 85.515 2.16378C84.9534 2.16378 84.4541 2.43066 84.1777 2.92883V2.28833H83.4823V6.54947H84.1956V4.04082Z" fill="white"/>
</svg>
