<svg width="118" height="20" viewBox="0 0 118 20" fill="none" xmlns="http://www.w3.org/2000/svg">
  <path d="M1.48429 19.3548C1.70815 19.3548 1.88953 19.1738 1.88953 18.9504V13.5605C1.88953 13.3371 1.70815 13.1561 1.48429 13.1561H1.05466C0.830881 13.1561 0.649414 13.3371 0.649414 13.5605V18.9504C0.649414 19.1738 0.830881 19.3548 1.05466 19.3548H1.48429Z" fill="#B4ADC7"/>
  <path d="M9.7293 19.3548C9.95315 19.3548 10.1345 19.1738 10.1345 18.9504V13.5605C10.1345 13.3371 9.95315 13.1561 9.7293 13.1561H9.31742C9.09356 13.1561 8.91217 13.3371 8.91217 13.5605V17.2565L6.53778 13.5309C6.38906 13.2975 6.13108 13.1561 5.8539 13.1561H5.18063C4.95678 13.1561 4.77539 13.3371 4.77539 13.5605V18.9504C4.77539 19.1738 4.95678 19.3548 5.18063 19.3548H5.5926C5.81637 19.3548 5.99784 19.1738 5.99784 18.9504V14.9571L8.73038 19.1702C8.80503 19.2853 8.93316 19.3548 9.07054 19.3548H9.7293Z" fill="#B4ADC7"/>
  <path d="M17.2271 14.3014C17.451 14.3014 17.6323 14.1204 17.6323 13.8971V13.5605C17.6323 13.3371 17.451 13.1561 17.2271 13.1561H12.8379C12.614 13.1561 12.4326 13.3371 12.4326 13.5605V13.8971C12.4326 14.1204 12.614 14.3014 12.8379 14.3014H14.4168V18.9504C14.4168 19.1738 14.5983 19.3548 14.8221 19.3548H15.2429C15.4667 19.3548 15.6481 19.1738 15.6481 18.9504V14.3014H17.2271Z" fill="#B4ADC7"/>
  <path d="M23.4551 19.3548C23.6796 19.3548 23.8604 19.1738 23.8604 18.9504V18.6226C23.8604 18.3993 23.6796 18.2182 23.4551 18.2182H21.1502V16.7844H23.1986C23.4227 16.7844 23.6042 16.6034 23.6042 16.38V16.1134C23.6042 15.8901 23.4227 15.709 23.1986 15.709H21.1502V14.2927H23.4551C23.6796 14.2927 23.8604 14.1116 23.8604 13.8883V13.5605C23.8604 13.3371 23.6796 13.1561 23.4551 13.1561H20.333C20.1091 13.1561 19.9277 13.3371 19.9277 13.5605V18.9504C19.9277 19.1738 20.1091 19.3548 20.333 19.3548H23.4551Z" fill="#B4ADC7"/>
  <path d="M29.4625 19.1356C29.5314 19.2702 29.6708 19.3548 29.8224 19.3548H30.2657C30.5713 19.3548 30.7674 19.0304 30.624 18.7611L29.593 16.8194C30.4165 16.5833 30.9303 15.9276 30.9303 15.062C30.9303 13.9867 30.1514 13.1561 28.9284 13.1561H26.8803C26.6566 13.1561 26.4751 13.3371 26.4751 13.5605V18.9504C26.4751 19.1738 26.6566 19.3548 26.8803 19.3548H27.301C27.5247 19.3548 27.7062 19.1738 27.7062 18.9504V16.968H28.3441L29.4625 19.1356ZM27.7062 15.9276V14.2053H28.6983C29.3183 14.2053 29.6814 14.5462 29.6814 15.0708C29.6814 15.5779 29.3183 15.9276 28.6983 15.9276H27.7062Z" fill="#B4ADC7"/>
  <path d="M38.4253 19.3548C38.649 19.3548 38.8306 19.1738 38.8306 18.9504V13.5605C38.8306 13.3371 38.649 13.1561 38.4253 13.1561H38.0136C37.7899 13.1561 37.6084 13.3371 37.6084 13.5605V17.2565L35.2337 13.5309C35.0853 13.2975 34.8276 13.1561 34.5504 13.1561H33.8769C33.6532 13.1561 33.4717 13.3371 33.4717 13.5605V18.9504C33.4717 19.1738 33.6532 19.3548 33.8769 19.3548H34.2886C34.5123 19.3548 34.6939 19.1738 34.6939 18.9504V14.9571L37.4268 19.1702C37.5014 19.2853 37.6294 19.3548 37.7664 19.3548H38.4253Z" fill="#B4ADC7"/>
  <path d="M45.2508 19.3548C45.4745 19.3548 45.6561 19.1738 45.6561 18.9504V18.6226C45.6561 18.3993 45.4745 18.2182 45.2508 18.2182H42.9458V16.7844H44.9939C45.2176 16.7844 45.3992 16.6034 45.3992 16.38V16.1134C45.3992 15.8901 45.2176 15.709 44.9939 15.709H42.9458V14.2927H45.2508C45.4745 14.2927 45.6561 14.1116 45.6561 13.8883V13.5605C45.6561 13.3371 45.4745 13.1561 45.2508 13.1561H42.1289C41.9044 13.1561 41.7236 13.3371 41.7236 13.5605V18.9504C41.7236 19.1738 41.9044 19.3548 42.1289 19.3548H45.2508Z" fill="#B4ADC7"/>
  <path d="M52.4711 14.3014C52.6948 14.3014 52.8763 14.1204 52.8763 13.8971V13.5605C52.8763 13.3371 52.6948 13.1561 52.4711 13.1561H48.0815C47.8578 13.1561 47.6763 13.3371 47.6763 13.5605V13.8971C47.6763 14.1204 47.8578 14.3014 48.0815 14.3014H49.6603V18.9504C49.6603 19.1738 49.8419 19.3548 50.0656 19.3548H50.487C50.7107 19.3548 50.8923 19.1738 50.8923 18.9504V14.3014H52.4711Z" fill="#B4ADC7"/>
  <path d="M61.2923 19.4861C63.0551 19.4861 63.9588 18.332 64.1979 17.379L63.0551 17.0381C62.8865 17.6151 62.3646 18.3057 61.2923 18.3057C60.2825 18.3057 59.3439 17.5801 59.3439 16.2599C59.3439 14.8523 60.336 14.1878 61.2745 14.1878C62.3646 14.1878 62.8517 14.8435 63.0016 15.4381L64.1533 15.0796C63.9053 14.0742 63.0105 13.025 61.2745 13.025C59.5919 13.025 58.0771 14.284 58.0771 16.2599C58.0771 18.2358 59.5384 19.4861 61.2923 19.4861Z" fill="#B4ADC7"/>
  <path d="M67.4559 16.2512C67.4559 14.8523 68.4488 14.1878 69.414 14.1878C70.3882 14.1878 71.3803 14.8523 71.3803 16.2512C71.3803 17.65 70.3882 18.3145 69.414 18.3145C68.4488 18.3145 67.4559 17.65 67.4559 16.2512ZM66.1899 16.2599C66.1899 18.2533 67.7128 19.4861 69.414 19.4861C71.1233 19.4861 72.647 18.2533 72.647 16.2599C72.647 14.2578 71.1233 13.025 69.414 13.025C67.7128 13.025 66.1899 14.2578 66.1899 16.2599Z" fill="#B4ADC7"/>
  <path d="M81.7605 19.3548C81.9851 19.3548 82.1658 19.1738 82.1658 18.9504V13.5605C82.1658 13.3371 81.9851 13.1561 81.7605 13.1561H80.7726C80.608 13.1561 80.4597 13.2551 80.3973 13.4068L78.658 17.6325L76.8758 13.4037C76.8126 13.2537 76.6651 13.1561 76.5021 13.1561H75.5644C75.3407 13.1561 75.1592 13.3371 75.1592 13.5605V18.9504C75.1592 19.1738 75.3407 19.3548 75.5644 19.3548H75.9235C76.1472 19.3548 76.3287 19.1738 76.3287 18.9504V15.0446L78.0315 19.1065C78.0947 19.257 78.2422 19.3548 78.4052 19.3548H78.8841C79.0479 19.3548 79.1954 19.2564 79.2578 19.1055L80.9614 15.0096V18.9504C80.9614 19.1738 81.143 19.3548 81.3667 19.3548H81.7605Z" fill="#B4ADC7"/>
  <path d="M86.2853 15.9801V14.2053H87.2506C87.8617 14.2053 88.2345 14.5462 88.2345 15.0971C88.2345 15.6303 87.8617 15.9801 87.2506 15.9801H86.2853ZM87.4014 17.0204C88.6414 17.0204 89.4656 16.2161 89.4656 15.0883C89.4656 13.9692 88.6414 13.1561 87.4014 13.1561H85.4594C85.2357 13.1561 85.0542 13.3371 85.0542 13.5605V18.9504C85.0542 19.1738 85.2357 19.3548 85.4594 19.3548H85.8712C86.0949 19.3548 86.2764 19.1738 86.2764 18.9504V17.0204H87.4014Z" fill="#B4ADC7"/>
  <path d="M94.1908 19.4947C95.5378 19.4947 96.6093 18.6816 96.6093 17.1603V13.5605C96.6093 13.3371 96.4277 13.1561 96.2041 13.1561H95.7923C95.5686 13.1561 95.3871 13.3371 95.3871 13.5605V17.0729C95.3871 17.886 94.9348 18.3144 94.1908 18.3144C93.4646 18.3144 93.0043 17.886 93.0043 17.0729V13.5605C93.0043 13.3371 92.8227 13.1561 92.599 13.1561H92.1865C91.9628 13.1561 91.7812 13.3371 91.7812 13.5605V17.1603C91.7812 18.6816 92.8535 19.4947 94.1908 19.4947Z" fill="#B4ADC7"/>
  <path d="M103.647 14.3014C103.87 14.3014 104.052 14.1204 104.052 13.8971V13.5605C104.052 13.3371 103.87 13.1561 103.647 13.1561H99.2578C99.0333 13.1561 98.8525 13.3371 98.8525 13.5605V13.8971C98.8525 14.1204 99.0333 14.3014 99.2578 14.3014H100.837V18.9504C100.837 19.1738 101.018 19.3548 101.242 19.3548H101.662C101.886 19.3548 102.068 19.1738 102.068 18.9504V14.3014H103.647Z" fill="#B4ADC7"/>
  <path d="M109.875 19.3548C110.099 19.3548 110.28 19.1738 110.28 18.9504V18.6226C110.28 18.3993 110.099 18.2182 109.875 18.2182H107.57V16.7844H109.618C109.842 16.7844 110.024 16.6034 110.024 16.38V16.1134C110.024 15.8901 109.842 15.709 109.618 15.709H107.57V14.2927H109.875C110.099 14.2927 110.28 14.1116 110.28 13.8883V13.5605C110.28 13.3371 110.099 13.1561 109.875 13.1561H106.752C106.529 13.1561 106.347 13.3371 106.347 13.5605V18.9504C106.347 19.1738 106.529 19.3548 106.752 19.3548H109.875Z" fill="#B4ADC7"/>
  <path d="M115.882 19.1356C115.951 19.2702 116.091 19.3548 116.242 19.3548H116.686C116.991 19.3548 117.187 19.0304 117.044 18.7611L116.013 16.8194C116.836 16.5833 117.35 15.9276 117.35 15.062C117.35 13.9867 116.571 13.1561 115.348 13.1561H112.895V18.9504C112.895 19.1738 113.076 19.3548 113.3 19.3548H113.721C113.945 19.3548 114.126 19.1738 114.126 18.9504V16.968H114.764L115.882 19.1356ZM114.126 15.9276V14.2053H115.118C115.738 14.2053 116.101 14.5462 116.101 15.0708C116.101 15.5779 115.738 15.9276 115.118 15.9276H114.126Z" fill="#B4ADC7"/>
  <path d="M32.6188 6.98136V1.2168H31.9591C31.8164 1.83952 31.2726 2.311 30.4702 2.34658V2.77359H31.8877V6.98136H32.6188ZM36.0137 6.4476C35.5858 6.4476 35.2738 6.28748 35.042 6.03839C34.6586 5.63807 34.4981 4.97088 34.4981 4.09908C34.4981 3.22728 34.6586 2.56009 35.042 2.15977C35.2738 1.91068 35.5858 1.75056 36.0137 1.75056C36.4417 1.75056 36.7537 1.91068 36.9855 2.15977C37.3689 2.56009 37.5293 3.22728 37.5293 4.09908C37.5293 4.97088 37.3689 5.63807 36.9855 6.03839C36.7537 6.28748 36.4417 6.4476 36.0137 6.4476ZM36.0137 7.1059C36.7983 7.1059 37.36 6.75896 37.7255 6.22521C38.1267 5.64697 38.2604 4.88192 38.2604 4.09908C38.2604 3.31624 38.1267 2.55119 37.7255 1.97295C37.36 1.4392 36.7983 1.09226 36.0137 1.09226C35.2292 1.09226 34.6675 1.4392 34.302 1.97295C33.9008 2.55119 33.7671 3.31624 33.7671 4.09908C33.7671 4.88192 33.9008 5.64697 34.302 6.22521C34.6675 6.75896 35.2292 7.1059 36.0137 7.1059ZM41.4726 6.4476C41.0447 6.4476 40.7326 6.28748 40.5008 6.03839C40.1175 5.63807 39.957 4.97088 39.957 4.09908C39.957 3.22728 40.1175 2.56009 40.5008 2.15977C40.7326 1.91068 41.0447 1.75056 41.4726 1.75056C41.9005 1.75056 42.2126 1.91068 42.4444 2.15977C42.8277 2.56009 42.9882 3.22728 42.9882 4.09908C42.9882 4.97088 42.8277 5.63807 42.4444 6.03839C42.2126 6.28748 41.9005 6.4476 41.4726 6.4476ZM41.4726 7.1059C42.2571 7.1059 42.8188 6.75896 43.1843 6.22521C43.5855 5.64697 43.7192 4.88192 43.7192 4.09908C43.7192 3.31624 43.5855 2.55119 43.1843 1.97295C42.8188 1.4392 42.2571 1.09226 41.4726 1.09226C40.688 1.09226 40.1264 1.4392 39.7608 1.97295C39.3597 2.55119 39.2259 3.31624 39.2259 4.09908C39.2259 4.88192 39.3597 5.64697 39.7608 6.22521C40.1264 6.75896 40.688 7.1059 41.4726 7.1059ZM45.1217 2.51561C45.1217 2.06191 45.4605 1.72387 45.8884 1.72387C46.3342 1.72387 46.6641 2.06191 46.6641 2.51561C46.6641 2.9693 46.3342 3.30734 45.8884 3.30734C45.4605 3.30734 45.1217 2.9693 45.1217 2.51561ZM44.4976 2.51561C44.4976 3.28955 45.1306 3.90337 45.8884 3.90337C46.6551 3.90337 47.297 3.28955 47.297 2.51561C47.297 1.74166 46.6551 1.12784 45.8884 1.12784C45.1306 1.12784 44.4976 1.74166 44.4976 2.51561ZM48.6522 5.63807C48.6522 5.18438 48.9909 4.84634 49.4189 4.84634C49.8646 4.84634 50.1945 5.18438 50.1945 5.63807C50.1945 6.09177 49.8646 6.42981 49.4189 6.42981C48.9909 6.42981 48.6522 6.09177 48.6522 5.63807ZM48.0281 5.63807C48.0281 6.41202 48.6611 7.02584 49.4189 7.02584C50.1856 7.02584 50.8275 6.41202 50.8275 5.63807C50.8275 4.86413 50.1856 4.25031 49.4189 4.25031C48.6611 4.25031 48.0281 4.86413 48.0281 5.63807ZM45.9152 6.98136L50.0786 1.2168H49.3921L45.2109 6.98136H45.9152ZM55.938 2.59567C54.7077 2.59567 53.7983 3.53864 53.7983 4.84634C53.7983 6.16293 54.7077 7.1059 55.938 7.1059C57.1683 7.1059 58.0777 6.16293 58.0777 4.84634C58.0777 3.53864 57.1683 2.59567 55.938 2.59567ZM55.938 3.23617C56.7047 3.23617 57.3644 3.81441 57.3644 4.84634C57.3644 5.88716 56.7047 6.46539 55.938 6.46539C55.1713 6.46539 54.5115 5.88716 54.5115 4.84634C54.5115 3.81441 55.1713 3.23617 55.938 3.23617ZM59.8907 4.47271C59.8907 3.80551 60.2741 3.23617 60.9605 3.23617C61.7362 3.23617 62.0215 3.73435 62.0215 4.35706V6.98136H62.7347V4.25031C62.7347 3.32513 62.2354 2.59567 61.2102 2.59567C60.6485 2.59567 60.1493 2.86255 59.8729 3.36072V2.72021H59.1775V6.98136H59.8907V4.47271ZM66.3616 4.73959V4.11687H63.9812V4.73959H66.3616ZM69.4844 3.23617C70.2511 3.23617 70.5988 3.76103 70.7147 4.21473L71.3566 3.93895C71.1783 3.26286 70.581 2.59567 69.4844 2.59567C68.2808 2.59567 67.3715 3.52085 67.3715 4.84634C67.3715 6.14514 68.263 7.1059 69.4933 7.1059C70.5899 7.1059 71.1872 6.41202 71.3923 5.78041L70.7682 5.50464C70.6434 5.89606 70.3046 6.46539 69.4933 6.46539C68.7355 6.46539 68.0847 5.86937 68.0847 4.84634C68.0847 3.81441 68.7355 3.23617 69.4844 3.23617ZM73.1243 4.43712C73.1243 3.77883 73.5165 3.23617 74.1941 3.23617C74.9697 3.23617 75.255 3.73435 75.255 4.35706V6.98136H75.9682V4.25031C75.9682 3.32513 75.469 2.59567 74.4437 2.59567C73.891 2.59567 73.4006 2.84475 73.1243 3.28955V0.549607H72.411V6.98136H73.1243V4.43712ZM77.0008 5.85158C77.0008 6.50098 77.5268 7.1059 78.4094 7.1059C79.1761 7.1059 79.6397 6.68779 79.827 6.34085C79.827 6.67 79.8626 6.8835 79.8804 6.98136H80.5758C80.5491 6.84792 80.5223 6.62552 80.5223 6.26969V4.11687C80.5223 3.28955 80.0142 2.59567 78.8017 2.59567C77.8834 2.59567 77.1702 3.14722 77.081 3.95675L77.7586 4.11687C77.821 3.57422 78.1954 3.20059 78.8195 3.20059C79.4882 3.20059 79.8091 3.56533 79.8091 4.0457C79.8091 4.23252 79.7378 4.36596 79.4258 4.41044L78.2757 4.57946C77.5268 4.68621 77.0008 5.10432 77.0008 5.85158ZM78.4986 6.50098C78.0082 6.50098 77.714 6.16293 77.714 5.81599C77.714 5.39788 78.0082 5.16659 78.4183 5.10432L79.8091 4.89971V5.18438C79.8091 6.09177 79.2385 6.50098 78.4986 6.50098ZM82.5793 6.98136V2.72021H81.8661V6.98136H82.5793ZM81.6878 1.03888C81.6878 1.33245 81.9285 1.57264 82.2227 1.57264C82.5169 1.57264 82.7577 1.33245 82.7577 1.03888C82.7577 0.745317 82.5169 0.505127 82.2227 0.505127C81.9285 0.505127 81.6878 0.745317 81.6878 1.03888ZM84.6858 4.47271C84.6858 3.80551 85.0691 3.23617 85.7556 3.23617C86.5312 3.23617 86.8165 3.73435 86.8165 4.35706V6.98136H87.5298V4.25031C87.5298 3.32513 87.0305 2.59567 86.0053 2.59567C85.4436 2.59567 84.9443 2.86255 84.668 3.36072V2.72021H83.9726V6.98136H84.6858V4.47271Z" fill="#B4ADC7"/>
</svg>
